<svg xmlns="http://www.w3.org/2000/svg" viewBox="0 0 1280 720" role="img" aria-label="Placeholder for schemes-agriculture">
<title>SchemeAI schemes-agriculture image slot</title>
<linearGradient id="base" x1="0" y1="0" x2="0" y2="720" gradientUnits="userSpaceOnUse"><stop offset="0" stop-color="#EFD9A0" stop-opacity="1"/><stop offset="40" stop-color="#E7DCC3" stop-opacity="1"/><stop offset="100" stop-color="#44A378" stop-opacity="1"/></linearGradient>
<radialGradient id="glowM" cx="50%" cy="50%" r="70%"><stop offset="0" stop-color="#EFD9A0" stop-opacity="1"/><stop offset="100" stop-color="#EFD9A0" stop-opacity="0"/></radialGradient>
<circle cx="1049.6" cy="144" r="1152" fill="url(#glowM)" opacity="0.45"/>
<polygon points="860,30,1010,30,1050,750,820,750" fill="#F8F7F2" opacity="0.06"/>
<polygon points="930,30,1080,30,1120,750,890,750" fill="#F8F7F2" opacity="0.06"/>
<polygon points="1000,30,1150,30,1190,750,960,750" fill="#F8F7F2" opacity="0.06"/>
<path d="M 0 720 L 0 619.2 Q 640 561.6 1280 619.2 L 1280 720 Z" fill="#062820" opacity="0.05"/>
<g transform="translate(880 240) scale(1) translate(-880 -240)">
<circle cx="880" cy="240" r="110" fill="#EFD9A0" opacity="0.55"/><circle cx="880" cy="240" r="74" fill="#C79A2D" opacity="0.4"/><circle cx="880" cy="240" r="150" fill="none" stroke="#C79A2D" stroke-width="8" opacity="0.4"/><circle cx="880" cy="240" r="210" fill="none" stroke="#0F4C3A" stroke-width="6" opacity="0.3"/><path d="M 120 480 Q 640 506 1160 480" fill="none" stroke="#17654A" stroke-width="7" opacity="0.22"/><path d="M 120 510 Q 640 536 1160 510" fill="none" stroke="#17654A" stroke-width="7" opacity="0.22"/><path d="M 120 540 Q 640 566 1160 540" fill="none" stroke="#17654A" stroke-width="7" opacity="0.22"/><path d="M 120 570 Q 640 596 1160 570" fill="none" stroke="#17654A" stroke-width="7" opacity="0.22"/><path d="M 120 600 Q 640 626 1160 600" fill="none" stroke="#17654A" stroke-width="7" opacity="0.22"/><path d="M 120 630 Q 640 656 1160 630" fill="none" stroke="#17654A" stroke-width="7" opacity="0.22"/><path d="M 120 660 Q 640 686 1160 660" fill="none" stroke="#17654A" stroke-width="7" opacity="0.22"/>
</g>
<line x1="0" y1="0" x2="26" y2="-14" stroke="#0F4C3A" stroke-width="1" opacity="0.03"/><line x1="97" y1="61" x2="123" y2="47" stroke="#0F4C3A" stroke-width="1" opacity="0.03"/><line x1="194" y1="122" x2="220" y2="108" stroke="#0F4C3A" stroke-width="1" opacity="0.03"/><line x1="291" y1="183" x2="317" y2="169" stroke="#0F4C3A" stroke-width="1" opacity="0.03"/><line x1="388" y1="244" x2="414" y2="230" stroke="#0F4C3A" stroke-width="1" opacity="0.03"/><line x1="485" y1="305" x2="511" y2="291" stroke="#0F4C3A" stroke-width="1" opacity="0.03"/><line x1="582" y1="366" x2="608" y2="352" stroke="#0F4C3A" stroke-width="1" opacity="0.03"/><line x1="679" y1="427" x2="705" y2="413" stroke="#0F4C3A" stroke-width="1" opacity="0.03"/><line x1="776" y1="488" x2="802" y2="474" stroke="#0F4C3A" stroke-width="1" opacity="0.03"/><line x1="873" y1="549" x2="899" y2="535" stroke="#0F4C3A" stroke-width="1" opacity="0.03"/><line x1="970" y1="610" x2="996" y2="596" stroke="#0F4C3A" stroke-width="1" opacity="0.03"/><line x1="1067" y1="671" x2="1093" y2="657" stroke="#0F4C3A" stroke-width="1" opacity="0.03"/><line x1="1164" y1="12" x2="1190" y2="-2" stroke="#0F4C3A" stroke-width="1" opacity="0.03"/><line x1="1261" y1="73" x2="1287" y2="59" stroke="#0F4C3A" stroke-width="1" opacity="0.03"/>
<radialGradient id="vg" cx="50%" cy="45%" r="85%"><stop offset="55%" stop-color="#000" stop-opacity="0"/><stop offset="100%" stop-color="#062820" stop-opacity="0.18"/></radialGradient><rect x="0" y="0" width="1280" height="720" rx="0" fill="url(#vg)" />
</svg>