<svg xmlns="http://www.w3.org/2000/svg" viewBox="0 0 800 1000" role="img" aria-label="Placeholder for signup-side">
<title>SchemeAI signup-side image slot</title>
<linearGradient id="base" x1="0" y1="0" x2="800" y2="1000" gradientUnits="userSpaceOnUse"><stop offset="0" stop-color="#F8F7F2" stop-opacity="1"/><stop offset="100" stop-color="#E7DCC3" stop-opacity="1"/></linearGradient>
<radialGradient id="glowS" cx="50%" cy="50%" r="70%"><stop offset="0" stop-color="#C79A2D" stop-opacity="1"/><stop offset="100" stop-color="#C79A2D" stop-opacity="0"/></radialGradient>
<circle cx="624" cy="260" r="850.0000000000001" fill="url(#glowS)" opacity="0.4"/>
<radialGradient id="glowC" cx="50%" cy="50%" r="70%"><stop offset="0" stop-color="#A96A3B" stop-opacity="1"/><stop offset="100" stop-color="#A96A3B" stop-opacity="0"/></radialGradient>
<circle cx="400" cy="700" r="750" fill="url(#glowC)" opacity="0.3"/>
<polygon points="180,0,330,0,370,1000,140,1000" fill="#F8F7F2" opacity="0.06"/>
<polygon points="250,0,400,0,440,1000,210,1000" fill="#F8F7F2" opacity="0.06"/>
<polygon points="320,0,470,0,510,1000,280,1000" fill="#F8F7F2" opacity="0.06"/>
<path d="M 0 1000 L 0 860 Q 400 780 800 860 L 800 1000 Z" fill="#062820" opacity="0.05"/>
<g transform="translate(200 180) scale(0.95) translate(-200 -180)">
<line x1="50" y1="440" x2="50" y2="180" stroke="#0F4C3A" stroke-width="26" stroke-linecap="round" opacity="0.32"/><line x1="350" y1="440" x2="350" y2="180" stroke="#0F4C3A" stroke-width="26" stroke-linecap="round" opacity="0.32"/><path d="M 10 500 L 10 120 L 64.28571428571428 120 L 64.28571428571428 174.28571428571428 L 118.57142857142857 174.28571428571428 L 118.57142857142857 228.57142857142856 L 172.85714285714286 228.57142857142856 L 172.85714285714286 282.8571428571429 L 227.14285714285714 282.8571428571429 L 227.14285714285714 337.1428571428571 L 281.42857142857144 337.1428571428571 L 281.42857142857144 391.42857142857144 L 335.7142857142857 391.42857142857144 L 335.7142857142857 445.7142857142857 L 390 445.7142857142857 L 390 500" fill="none" stroke="#C79A2D" stroke-width="18" stroke-linejoin="round"/><line x1="10" y1="250" x2="390" y2="250" stroke="#0F4C3A" stroke-width="14" stroke-linecap="round" opacity="0.4"/>
</g>
<line x1="0" y1="0" x2="26" y2="-14" stroke="#0F4C3A" stroke-width="1" opacity="0.03"/><line x1="97" y1="61" x2="123" y2="47" stroke="#0F4C3A" stroke-width="1" opacity="0.03"/><line x1="194" y1="122" x2="220" y2="108" stroke="#0F4C3A" stroke-width="1" opacity="0.03"/><line x1="291" y1="183" x2="317" y2="169" stroke="#0F4C3A" stroke-width="1" opacity="0.03"/><line x1="388" y1="244" x2="414" y2="230" stroke="#0F4C3A" stroke-width="1" opacity="0.03"/><line x1="485" y1="305" x2="511" y2="291" stroke="#0F4C3A" stroke-width="1" opacity="0.03"/><line x1="582" y1="366" x2="608" y2="352" stroke="#0F4C3A" stroke-width="1" opacity="0.03"/><line x1="679" y1="427" x2="705" y2="413" stroke="#0F4C3A" stroke-width="1" opacity="0.03"/><line x1="776" y1="488" x2="802" y2="474" stroke="#0F4C3A" stroke-width="1" opacity="0.03"/><line x1="73" y1="549" x2="99" y2="535" stroke="#0F4C3A" stroke-width="1" opacity="0.03"/><line x1="170" y1="610" x2="196" y2="596" stroke="#0F4C3A" stroke-width="1" opacity="0.03"/><line x1="267" y1="671" x2="293" y2="657" stroke="#0F4C3A" stroke-width="1" opacity="0.03"/><line x1="364" y1="732" x2="390" y2="718" stroke="#0F4C3A" stroke-width="1" opacity="0.03"/><line x1="461" y1="793" x2="487" y2="779" stroke="#0F4C3A" stroke-width="1" opacity="0.03"/>
<radialGradient id="vg" cx="50%" cy="45%" r="85%"><stop offset="55%" stop-color="#000" stop-opacity="0"/><stop offset="100%" stop-color="#062820" stop-opacity="0.18"/></radialGradient><rect x="0" y="0" width="800" height="1000" rx="0" fill="url(#vg)" />
</svg>